{
  "asset": {
    "version": "2.0",
    "generator": "THREE.GLTFExporter r164"
  },
  "scenes": [
    {
      "name": "Scene",
      "nodes": [
        4
      ]
    }
  ],
  "scene": 0,
  "nodes": [
    {
      "name": "Fridge_0",
      "extras": {
        "name": "Fridge_0"
      },
      "mesh": 0
    },
    {
      "name": "Fridge",
      "extras": {
        "name": "Fridge"
      },
      "children": [
        0
      ]
    },
    {
      "name": "Root",
      "extras": {
        "name": "Root"
      },
      "children": [
        1
      ]
    },
    {
      "matrix": [
        0.3861466944217682,
        0,
        0,
        0,
        0,
        8.574179020598831e-17,
        -0.3861466944217682,
        0,
        0,
        0.3861466944217682,
        8.574179020598831e-17,
        0,
        0,
        0,
        0,
        1
      ],
      "name": "Sketchfab_model",
      "extras": {
        "name": "Sketchfab_model"
      },
      "children": [
        2
      ]
    },
    {
      "name": "house_props__fridge.glb",
      "children": [
        3
      ]
    }
  ],
  "bufferViews": [
    {
      "buffer": 0,
      "byteOffset": 0,
      "byteLength": 18408,
      "target": 34962,
      "byteStride": 12
    },
    {
      "buffer": 0,
      "byteOffset": 18408,
      "byteLength": 18408,
      "target": 34962,
      "byteStride": 12
    },
    {
      "buffer": 0,
      "byteOffset": 36816,
      "byteLength": 12272,
      "target": 34962,
      "byteStride": 8
    },
    {
      "buffer": 0,
      "byteOffset": 49088,
      "byteLength": 13428,
      "target": 34963
    }
  ],
  "buffers": [
    {
      "byteLength": 62516,
      "uri": "data:application/octet-stream;base64,"
    }
  ],
  "accessors": [
    {
      "bufferView": 0,
      "componentType": 5126,
      "count": 1534,
      "max": [
        1,
        1,
        1
      ],
      "min": [
        -0.9807885885238647,
        -1,
        -1
      ],
      "type": "VEC3"
    },
    {
      "bufferView": 1,
      "componentType": 5126,
      "count": 1534,
      "max": [
        1.251389980316162,
        0.9900000095367432,
        4.699709892272949
      ],
      "min": [
        -1,
        -0.9900000095367432,
        0
      ],
      "type": "VEC3"
    },
    {
      "bufferView": 2,
      "componentType": 5126,
      "count": 1534,
      "max": [
        0.8831300139427185,
        0.9702399969100952
      ],
      "min": [
        0.005690000019967556,
        0.00570000009611249
      ],
      "type": "VEC2"
    },
    {
      "bufferView": 3,
      "componentType": 5125,
      "count": 3357,
      "max": [
        1533
      ],
      "min": [
        0
      ],
      "type": "SCALAR"
    }
  ],
  "materials": [
    {
      "pbrMetallicRoughness": {
        "metallicFactor": 0,
        "roughnessFactor": 0,
        "baseColorTexture": {
          "index": 0,
          "texCoord": 0
        }
      },
      "doubleSided": true,
      "name": "Frigo"
    }
  ],
  "textures": [
    {
      "sampler": 0,
      "source": 0
    }
  ],
  "samplers": [
    {
      "magFilter": 9729,
      "minFilter": 9987,
      "wrapS": 10497,
      "wrapT": 10497
    }
  ],
  "images": [
    {
      "mimeType": "image/png",
      "uri": "data:image/png;base64,"
    }
  ],
  "meshes": [
    {
      "primitives": [
        {
          "mode": 4,
          "attributes": {
            "NORMAL": 0,
            "POSITION": 1,
            "TEXCOORD_0": 2
          },
          "indices": 3,
          "material": 0
        }
      ]
    }
  ]
}